<?xml version="1.0" standalone="no"?>
<!DOCTYPE svg PUBLIC "-//W3C//DTD SVG 20010904//EN"
 "http://www.w3.org/TR/2001/REC-SVG-20010904/DTD/svg10.dtd">
<svg version="1.0" xmlns="http://www.w3.org/2000/svg"
 width="700.000000pt" height="700.000000pt" viewBox="0 0 700.000000 700.000000"
 preserveAspectRatio="xMidYMid meet">
<metadata>
Created by potrace 1.14, written by Peter Selinger 2001-2017
</metadata>
<g transform="translate(0.000000,700.000000) scale(0.100000,-0.100000)"
fill="#000000" stroke="none">
<path d="M5100 5714 c-350 -67 -606 -349 -624 -688 -2 -50 -9 -62 -38 -68 -13
-3 -196 -56 -408 -117 l-385 -113 -25 34 c-38 50 -135 144 -183 176 -56 39
-159 87 -227 106 -179 51 -384 35 -550 -42 -104 -49 -227 -146 -281 -224 -13
-18 -26 -35 -30 -38 -18 -14 -82 -157 -100 -226 -29 -110 -29 -253 0 -359 12
-44 27 -90 33 -102 6 -13 9 -24 7 -26 -2 -2 -137 -109 -299 -238 -162 -129
-301 -238 -307 -242 -7 -5 -31 3 -57 18 -202 118 -473 137 -698 48 -219 -86
-394 -290 -449 -522 -25 -103 -20 -268 11 -366 103 -330 425 -552 770 -532
108 7 134 11 205 34 160 51 321 170 401 298 17 25 34 43 42 40 13 -5 490 -122
526 -129 12 -3 50 -12 86 -21 36 -9 83 -20 106 -25 22 -5 87 -21 145 -35 57
-15 112 -29 122 -31 10 -2 26 -5 35 -8 9 -3 28 -7 42 -10 14 -3 40 -9 58 -15
36 -11 37 -11 55 -11 7 0 13 -16 14 -44 2 -61 31 -170 61 -236 122 -266 382
-435 679 -444 376 -12 694 232 773 591 11 51 18 118 17 165 l-2 80 215 87 215
88 55 -55 c217 -218 546 -285 840 -171 343 132 539 499 456 851 -105 444 -605
694 -1037 518 -89 -36 -160 -79 -224 -136 -27 -24 -54 -44 -60 -43 -5 0 -74
32 -152 72 l-142 72 51 100 c225 440 248 480 265 477 10 -1 70 -3 133 -3 167
-1 301 38 434 126 146 96 256 246 307 415 29 97 32 272 6 370 -76 284 -314
502 -607 556 -64 12 -214 11 -280 -2z m252 -398 c61 -19 84 -31 136 -73 106
-86 147 -221 108 -355 -58 -202 -317 -306 -518 -210 -293 139 -267 534 41 633
68 22 170 24 233 5z m-2223 -660 c83 -30 164 -103 204 -185 80 -162 -1 -367
-177 -447 -62 -28 -93 -34 -171 -35 -141 0 -274 83 -333 209 -38 81 -38 193
-1 272 44 93 135 168 238 197 57 16 180 10 240 -11z m1496 -112 c21 -25 54
-61 73 -80 l36 -35 -94 -182 c-51 -100 -117 -229 -146 -286 -29 -57 -55 -106
-58 -108 -2 -3 -151 67 -330 155 -179 88 -334 163 -344 166 -18 6 -19 25 -4
89 1 4 2 25 2 47 l0 39 85 26 c46 14 92 28 102 30 10 2 97 27 193 55 96 28
229 67 294 86 66 18 121 36 124 39 13 13 33 1 67 -41z m-897 -790 c220 -108
516 -255 520 -259 2 -2 -50 -109 -115 -237 -111 -218 -121 -234 -144 -231
-125 19 -288 2 -409 -43 -154 -58 -309 -188 -385 -322 -2 -2 -144 31 -235 53
-8 3 -44 12 -80 21 -36 9 -74 18 -85 19 -11 2 -157 37 -325 78 -168 41 -340
83 -382 93 -43 10 -82 20 -86 23 -5 3 -12 33 -15 66 -3 33 -17 96 -31 140
l-26 80 23 20 c13 11 38 31 56 45 18 14 38 30 44 35 7 6 64 51 127 100 63 49
117 92 120 95 3 3 50 41 105 84 55 44 109 88 121 98 20 17 21 17 65 -10 168
-106 417 -136 629 -76 103 29 269 127 319 188 7 9 18 16 23 16 5 0 80 -34 166
-76z m2046 -399 c98 -30 178 -96 222 -183 26 -50 29 -67 29 -147 0 -79 -4 -97
-28 -143 -38 -73 -97 -128 -175 -165 -61 -29 -76 -32 -162 -32 -86 0 -101 3
-162 32 -77 36 -142 98 -178 169 -33 65 -36 206 -6 269 45 93 124 163 221 197
62 21 173 23 239 3z m-1016 -107 c136 -67 147 -75 144 -98 -1 -14 -4 -70 -5
-124 l-3 -99 -41 -16 c-23 -9 -45 -19 -49 -23 -4 -5 -14 -8 -21 -8 -8 0 -39
-11 -69 -25 -30 -14 -57 -25 -60 -25 -3 0 -20 -6 -37 -14 -18 -7 -59 -25 -92
-39 l-61 -25 -47 51 -48 50 34 66 c19 36 72 141 118 233 46 92 85 167 87 168
1 0 69 -33 150 -72z m-3374 -7 c105 -48 170 -119 199 -218 80 -270 -205 -513
-486 -415 -148 52 -239 175 -239 322 -1 254 283 422 526 311z m2602 -619 c11
-5 39 -20 64 -32 57 -29 121 -95 151 -157 34 -68 34 -205 0 -278 -52 -113
-175 -193 -309 -202 -148 -10 -281 53 -350 167 -44 73 -55 122 -49 201 12 145
105 253 262 306 44 14 200 11 231 -5z"/>
</g>
</svg>
