<?xml version="1.0" encoding="UTF-8"?>
<svg xmlns="http://www.w3.org/2000/svg" xmlns:xlink="http://www.w3.org/1999/xlink" width="283.4646pt" height="283.4646pt" viewBox="0 0 283.4646 283.4646" version="1.1">
<g id="surface1">
<path style="fill:none;stroke-width:16;stroke-linecap:round;stroke-linejoin:round;stroke:rgb(19.999695%,19.999695%,19.999695%);stroke-opacity:1;stroke-miterlimit:10;" d="M 137.492188 92.390625 C 146.507812 100.996094 146.507812 114.949219 137.492188 123.554688 C 128.476562 132.160156 113.859375 132.160156 104.84375 123.554688 C 95.828125 114.949219 95.828125 100.996094 104.84375 92.390625 C 113.859375 83.785156 128.476562 83.785156 137.492188 92.390625 "/>
<path style="fill:none;stroke-width:16;stroke-linecap:round;stroke-linejoin:round;stroke:rgb(19.999695%,19.999695%,19.999695%);stroke-opacity:1;stroke-miterlimit:10;" d="M 245.523438 145.335938 C 254.539062 153.941406 254.539062 167.894531 245.523438 176.5 C 236.507812 185.105469 221.890625 185.105469 212.875 176.5 C 203.859375 167.894531 203.859375 153.941406 212.875 145.335938 C 221.890625 136.730469 236.507812 136.730469 245.523438 145.335938 "/>
<path style="fill:none;stroke-width:16;stroke-linecap:round;stroke-linejoin:round;stroke:rgb(19.999695%,19.999695%,19.999695%);stroke-opacity:1;stroke-miterlimit:10;" d="M 172.660156 174.980469 C 181.675781 183.585938 181.675781 197.539062 172.660156 206.144531 C 163.644531 214.75 149.03125 214.75 140.015625 206.144531 C 131 197.539062 131 183.585938 140.015625 174.980469 C 149.03125 166.375 163.644531 166.375 172.660156 174.980469 "/>
<path style="fill:none;stroke-width:16;stroke-linecap:round;stroke-linejoin:round;stroke:rgb(19.999695%,19.999695%,19.999695%);stroke-opacity:1;stroke-miterlimit:10;" d="M 148.902344 121.5625 L 201.464844 147.328125 "/>
<path style="fill:none;stroke-width:16;stroke-linecap:round;stroke-linejoin:round;stroke:rgb(19.999695%,19.999695%,19.999695%);stroke-opacity:1;stroke-miterlimit:10;" d="M 65.996094 149.195312 C 75.011719 157.800781 75.011719 171.753906 65.996094 180.359375 C 56.980469 188.964844 42.363281 188.964844 33.347656 180.359375 C 24.335938 171.753906 24.335938 157.800781 33.347656 149.195312 C 42.363281 140.589844 56.980469 140.589844 65.996094 149.195312 "/>
<path style="fill:none;stroke-width:16;stroke-linecap:round;stroke-linejoin:round;stroke:rgb(19.999695%,19.999695%,19.999695%);stroke-opacity:1;stroke-miterlimit:10;" d="M 200.539062 172.578125 L 184.996094 178.902344 "/>
<path style="fill:none;stroke-width:16;stroke-linecap:round;stroke-linejoin:round;stroke:rgb(19.999695%,19.999695%,19.999695%);stroke-opacity:1;stroke-miterlimit:10;" d="M 126.175781 183.269531 L 79.835938 172.066406 "/>
<path style="fill:none;stroke-width:16;stroke-linecap:round;stroke-linejoin:round;stroke:rgb(19.999695%,19.999695%,19.999695%);stroke-opacity:1;stroke-miterlimit:10;" d="M 73.6875 145.695312 L 97.15625 127.050781 "/>
<path style="fill:none;stroke-width:16;stroke-linecap:round;stroke-linejoin:round;stroke:rgb(19.999695%,19.999695%,19.999695%);stroke-opacity:1;stroke-miterlimit:10;" d="M 228.570312 65.980469 C 237.585938 74.585938 237.585938 88.539062 228.570312 97.144531 C 219.554688 105.75 204.9375 105.75 195.921875 97.144531 C 186.90625 88.539062 186.90625 74.585938 195.921875 65.980469 C 204.9375 57.375 219.554688 57.375 228.570312 65.980469 "/>
<path style="fill:none;stroke-width:16;stroke-linecap:round;stroke-linejoin:round;stroke:rgb(19.999695%,19.999695%,19.999695%);stroke-opacity:1;stroke-miterlimit:10;" d="M 150.949219 99.335938 L 182.464844 90.199219 "/>
<path style="fill:none;stroke-width:16;stroke-linecap:round;stroke-linejoin:round;stroke:rgb(19.999695%,19.999695%,19.999695%);stroke-opacity:1;stroke-miterlimit:10;" d="M 170.144531 163.640625 L 198.4375 108.484375 "/>
</g>
</svg>
